# xmcd
#
# Track frame offsets:
#	150
#	10502
#	22588
#	31812
#	41142
#	53369
#	63359
#	72988
#	82998
#	93413
#	102866
#	116137
#	126579
#	140061
#	152028
#	162311
#	172768
#	183686
#
# Disc length: 2608 seconds
# Revision: 1
# Processed by: cddbd v1.5.2PL0 Copyright (c) Steve Scherf et al.
# Submitted via: dBpowerAMP V12.0
#
DISCID=e30a2e12
DTITLE=Various Artist - 50th Anniversary Collection
DYEAR=2010
DGENRE=Country
TTITLE0=Loretta Lynn - I'm A Honky Tonk Girl
TTITLE1=Loretta Lynn - Success (Single Version)
TTITLE2=Loretta Lynn - Wine, Women And Song
TTITLE3=Loretta Lynn - Happy Birthday
TTITLE4=Loretta Lynn - Blue Kentucky Girl (Single Version)
TTITLE5=Loretta Lynn - You Ain't Woman Enough To Take My Man (Single Version)
TTITLE6=Loretta Lynn - Don't Come Home A-Drinkin' (With Lovin' On Your Mind) (Single Version)
TTITLE7=Loretta Lynn - Fist City
TTITLE8=Loretta Lynn - You've Just Stepped In (From Stepping Out On Me)
TTITLE9=Loretta Lynn - Your Squaw Is On The Warpath (Single Version)
TTITLE10=Loretta Lynn - Woman Of The World (Leave My World Alone)
TTITLE11=Loretta Lynn - To Make A Man (Feel Like A Man) (Single Version)
TTITLE12=Loretta Lynn - Coal Miner's Daughter
TTITLE13=Conway Twitty and Loretta Lynn - After The Fire Is Gone (Single Version)
TTITLE14=Loretta Lynn - I Wanna Be Free
TTITLE15=Loretta Lynn - You're Lookin' At Country (Single Version)
TTITLE16=Conway Twitty and Loretta Lynn - Lead Me On (w/Conway Twitty)
TTITLE17=Loretta Lynn - One's On The Way
EXTD=
EXTT0=
EXTT1=
EXTT2=
EXTT3=
EXTT4=
EXTT5=
EXTT6=
EXTT7=
EXTT8=
EXTT9=
EXTT10=
EXTT11=
EXTT12=
EXTT13=
EXTT14=
EXTT15=
EXTT16=
EXTT17=
PLAYORDER=
